HIERARCHY
ROOT hip
{
  OFFSET 5.51535 103.731 -2.80141
  CHANNELS 6 Xposition Yposition Zposition Zrotation Xrotation Yrotation
  JOINT abdomen
  {
    OFFSET 0 -1.186 -1.5018
    CHANNELS 6 Xposition Yposition Zposition Zrotation Xrotation Yrotation
    JOINT abdomen2
    {
      OFFSET 0 9.964 0.2134
      CHANNELS 6 Xposition Yposition Zposition Zrotation Xrotation Yrotation
      JOINT chest
      {
        OFFSET 0 13.134 -3.2573
        CHANNELS 6 Xposition Yposition Zposition Zrotation Xrotation Yrotation
        JOINT neck
        {
          OFFSET 0 20.686 -1.6905
          CHANNELS 6 Xposition Yposition Zposition Zrotation Xrotation Yrotation
          JOINT head
          {
            OFFSET 0 7.23801 -0.1237
            CHANNELS 6 Xposition Yposition Zposition Zrotation Xrotation Yrotation
            End Site
            {
              OFFSET 0 0 0
            }
          }
        }
        JOINT lCollar
        {
          OFFSET 1.7069 20.075 5.0056
          CHANNELS 6 Xposition Yposition Zposition Zrotation Xrotation Yrotation
          JOINT lShldr
          {
            OFFSET 13.6458 -0.0470195 -4.849
            CHANNELS 6 Xposition Yposition Zposition Zrotation Xrotation Yrotation
            JOINT lForeArm
            {
              OFFSET 28.3255 -0.97589 2.2888
              CHANNELS 6 Xposition Yposition Zposition Zrotation Xrotation Yrotation
              JOINT lHand
              {
                OFFSET 22.1583 -0.529998 10.8316
                CHANNELS 6 Xposition Yposition Zposition Zrotation Xrotation Yrotation
                JOINT lThumb1
                {
                  OFFSET 0.786 0.111997 2.5817
                  CHANNELS 6 Xposition Yposition Zposition Zrotation Xrotation Yrotation
                  JOINT lThumb2
                  {
                    OFFSET 0.360097 -0.877999 4.2331
                    CHANNELS 6 Xposition Yposition Zposition Zrotation Xrotation Yrotation
                    JOINT lThumb2_End
                    {
                      OFFSET 1.8127 -1.21601 2.2227
                      CHANNELS 6 Xposition Yposition Zposition Zrotation Xrotation Yrotation
                      End Site
                      {
                        OFFSET 0.0180981 -0.012195 0.0222007
                      }
                    }
                  }
                }
                JOINT lCarpal1
                {
                  OFFSET 0.9571 1.114 1.7695
                  CHANNELS 6 Xposition Yposition Zposition Zrotation Xrotation Yrotation
                  JOINT lIndex1
                  {
                    OFFSET 4.12461 0.486992 4.1451
                    CHANNELS 6 Xposition Yposition Zposition Zrotation Xrotation Yrotation
                    JOINT lIndex2
                    {
                      OFFSET 3.4052 -1.45401 2.7682
                      CHANNELS 6 Xposition Yposition Zposition Zrotation Xrotation Yrotation
                      JOINT lIndex2_End
                      {
                        OFFSET 1.45309 -1.79499 1.2713
                        CHANNELS 6 Xposition Yposition Zposition Zrotation Xrotation Yrotation
                        End Site
                        {
                          OFFSET 0.0144979 -0.0179083 0.0126995
                        }
                      }
                    }
                  }
                  JOINT lMid1
                  {
                    OFFSET 5.6954 0.209987 2.1184
                    CHANNELS 6 Xposition Yposition Zposition Zrotation Xrotation Yrotation
                    JOINT lMid2
                    {
                      OFFSET 3.9766 -1.53999 2.3863
                      CHANNELS 6 Xposition Yposition Zposition Zrotation Xrotation Yrotation
                      JOINT lMid2_End
                      {
                        OFFSET 1.4042 -1.926 1.125
                        CHANNELS 6 Xposition Yposition Zposition Zrotation Xrotation Yrotation
                        End Site
                        {
                          OFFSET 0.013999 -0.0193044 0.011301
                        }
                      }
                    }
                  }
                }
                JOINT lCarpal2
                {
                  OFFSET 2.0956 0.66 -0.3894
                  CHANNELS 6 Xposition Yposition Zposition Zrotation Xrotation Yrotation
                  JOINT lRing1
                  {
                    OFFSET 5.0395 -0.090013 2.4971
                    CHANNELS 6 Xposition Yposition Zposition Zrotation Xrotation Yrotation
                    JOINT lRing2
                    {
                      OFFSET 3.7921 -1.55199 1.4806
                      CHANNELS 6 Xposition Yposition Zposition Zrotation Xrotation Yrotation
                      JOINT lRing2_End
                      {
                        OFFSET 1.4655 -1.808 0.9609
                        CHANNELS 6 Xposition Yposition Zposition Zrotation Xrotation Yrotation
                        End Site
                        {
                          OFFSET 0.0147015 -0.0181014 0.00959957
                        }
                      }
                    }
                  }
                  JOINT lPinky1
                  {
                    OFFSET 4.9141 -1.269 0.3591
                    CHANNELS 6 Xposition Yposition Zposition Zrotation Xrotation Yrotation
                    JOINT lPinky2
                    {
                      OFFSET 3.1477 -1.685 0.8462
                      CHANNELS 6 Xposition Yposition Zposition Zrotation Xrotation Yrotation
                      JOINT lPinky2_End
                      {
                        OFFSET 0.805498 -1.58501 0.795499
                        CHANNELS 6 Xposition Yposition Zposition Zrotation Xrotation Yrotation
                        End Site
                        {
                          OFFSET 0.00809703 -0.0157944 0.00799848
                        }
                      }
                    }
                  }
                }
              }
            }
          }
        }
        JOINT rCollar
        {
          OFFSET -1.7069 20.075 5.0056
          CHANNELS 6 Xposition Yposition Zposition Zrotation Xrotation Yrotation
          JOINT rShldr
          {
            OFFSET -13.6458 -0.0470107 -4.849
            CHANNELS 6 Xposition Yposition Zposition Zrotation Xrotation Yrotation
            JOINT rForeArm
            {
              OFFSET -28.3255 -0.975895 2.2888
              CHANNELS 6 Xposition Yposition Zposition Zrotation Xrotation Yrotation
              JOINT rHand
              {
                OFFSET -22.1583 -0.530007 10.8316
                CHANNELS 6 Xposition Yposition Zposition Zrotation Xrotation Yrotation
                JOINT rThumb1
                {
                  OFFSET -0.785997 0.112005 2.5817
                  CHANNELS 6 Xposition Yposition Zposition Zrotation Xrotation Yrotation
                  JOINT rThumb2
                  {
                    OFFSET -0.360106 -0.877994 4.2331
                    CHANNELS 6 Xposition Yposition Zposition Zrotation Xrotation Yrotation
                    JOINT rThumb2_End
                    {
                      OFFSET -1.8127 -1.216 2.2227
                      CHANNELS 6 Xposition Yposition Zposition Zrotation Xrotation Yrotation
                      End Site
                      {
                        OFFSET -0.0180972 -0.0121973 0.0222005
                      }
                    }
                  }
                }
                JOINT rCarpal1
                {
                  OFFSET -0.9571 1.114 1.7695
                  CHANNELS 6 Xposition Yposition Zposition Zrotation Xrotation Yrotation
                  JOINT rIndex1
                  {
                    OFFSET -4.1246 0.487011 4.1451
                    CHANNELS 6 Xposition Yposition Zposition Zrotation Xrotation Yrotation
                    JOINT rIndex2
                    {
                      OFFSET -3.4052 -1.45401 2.7682
                      CHANNELS 6 Xposition Yposition Zposition Zrotation Xrotation Yrotation
                      JOINT rIndex2_End
                      {
                        OFFSET -1.4531 -1.795 1.2713
                        CHANNELS 6 Xposition Yposition Zposition Zrotation Xrotation Yrotation
                        End Site
                        {
                          OFFSET -0.0145077 -0.0180048 0.0127017
                        }
                      }
                    }
                  }
                  JOINT rMid1
                  {
                    OFFSET -5.6954 0.210002 2.1184
                    CHANNELS 6 Xposition Yposition Zposition Zrotation Xrotation Yrotation
                    JOINT rMid2
                    {
                      OFFSET -3.9766 -1.54 2.3863
                      CHANNELS 6 Xposition Yposition Zposition Zrotation Xrotation Yrotation
                      JOINT rMid2_End
                      {
                        OFFSET -1.4042 -1.926 1.125
                        CHANNELS 6 Xposition Yposition Zposition Zrotation Xrotation Yrotation
                        End Site
                        {
                          OFFSET -0.0139948 -0.0192916 0.0112994
                        }
                      }
                    }
                  }
                }
                JOINT rCarpal2
                {
                  OFFSET -2.0956 0.66 -0.3894
                  CHANNELS 6 Xposition Yposition Zposition Zrotation Xrotation Yrotation
                  JOINT rRing1
                  {
                    OFFSET -5.03951 -0.0899879 2.4971
                    CHANNELS 6 Xposition Yposition Zposition Zrotation Xrotation Yrotation
                    JOINT rRing2
                    {
                      OFFSET -3.7921 -1.55201 1.4806
                      CHANNELS 6 Xposition Yposition Zposition Zrotation Xrotation Yrotation
                      JOINT rRing2_End
                      {
                        OFFSET -1.4655 -1.808 0.960901
                        CHANNELS 6 Xposition Yposition Zposition Zrotation Xrotation Yrotation
                        End Site
                        {
                          OFFSET -0.0146934 -0.0180999 0.00959832
                        }
                      }
                    }
                  }
                  JOINT rPinky1
                  {
                    OFFSET -4.91411 -1.26899 0.359202
                    CHANNELS 6 Xposition Yposition Zposition Zrotation Xrotation Yrotation
                    JOINT rPinky2
                    {
                      OFFSET -3.14769 -1.68501 0.846199
                      CHANNELS 6 Xposition Yposition Zposition Zrotation Xrotation Yrotation
                      JOINT rPinky2_End
                      {
                        OFFSET -0.805498 -1.585 0.7955
                        CHANNELS 6 Xposition Yposition Zposition Zrotation Xrotation Yrotation
                        End Site
                        {
                          OFFSET -0.00810035 -0.0158035 0.00800029
                        }
                      }
                    }
                  }
                }
              }
            }
          }
        }
      }
    }
  }
  JOINT lThigh
  {
    OFFSET 8.367 -8.2066 0.5982
    CHANNELS 6 Xposition Yposition Zposition Zrotation Xrotation Yrotation
    JOINT lShin
    {
      OFFSET 2.1923 -43.463 -0.4932
      CHANNELS 6 Xposition Yposition Zposition Zrotation Xrotation Yrotation
      JOINT lFoot
      {
        OFFSET 0.733301 -45.8593 -2.6451
        CHANNELS 6 Xposition Yposition Zposition Zrotation Xrotation Yrotation
        End Site
        {
          OFFSET 2.6618 -4.2699 12.3931
        }
      }
    }
  }
  JOINT rThigh
  {
    OFFSET -8.367 -8.2066 0.5982
    CHANNELS 6 Xposition Yposition Zposition Zrotation Xrotation Yrotation
    JOINT rShin
    {
      OFFSET -2.1923 -43.463 -0.4931
      CHANNELS 6 Xposition Yposition Zposition Zrotation Xrotation Yrotation
      JOINT rFoot
      {
        OFFSET -0.733299 -45.8593 -2.6451
        CHANNELS 6 Xposition Yposition Zposition Zrotation Xrotation Yrotation
        End Site
        {
          OFFSET -2.6618 -4.2699 12.3931
        }
      }
    }
  }
}
MOTION
Frames:	4
Frame Time:	0.0333333
-31.6963 97.8699 16.0886 9.34331 19.0823 -3.8368 -3.09564e-007 -1.186 -1.5018 -1.17118 1.70136 -0.987948 4.4339e-007 9.964 0.2134 -2.31437 3.42236 -1.94218 -8.71508e-007 13.134 -3.2573 -2.31437 3.42237 -1.94218 -1.83925e-006 20.686 -1.6905 -13.8649 -18.2631 25.8455 2.29884e-006 7.238 -0.123699 11.0436 -15.3096 19.9231 1.7069 20.075 5.0056 -0.319007 3.41957 -2.89257 13.6458 -0.0470185 -4.849 -35.7721 3.49188 -0.547481 28.3255 -0.975889 2.2888 -40.3806 50.8588 -45.473 22.1583 -0.529993 10.8316 33.0153 3.32619 -32.4537 0.786002 0.111997 2.5817 -0.186773 -1.63905 -3.41645 0.360099 -0.877998 4.2331 -1.40822 -0.137219 -2.57688 1.8127 -1.21601 2.2227 -1.39315 -0.135825 -2.54955 0.9571 1.114 1.7695 -6.36111e-015 3.18055e-015 4.77083e-015 4.12461 0.486996 4.1451 6.06814 -3.02516 -2.51857 3.4052 -1.454 2.7682 6.02165 -2.8204 -2.33938 1.4531 -1.79499 1.2713 6.07746 -2.84815 -2.3601 5.6954 0.209989 2.1184 5.95036 -3.57649 -2.31915 3.9766 -1.53999 2.3863 6.051 -3.14063 -2.37827 1.4042 -1.926 1.125 6.06767 -3.14979 -2.38475 2.0956 0.66 -0.3894 -6.36111e-015 3.18055e-015 4.77083e-015 5.0395 -0.0900138 2.4971 6.04068 -3.34739 -2.65126 3.7921 -1.55199 1.4806 5.96244 -3.36219 -2.69653 1.4655 -1.808 0.960901 5.97911 -3.37196 -2.70364 4.9141 -1.269 0.359099 6.07118 -3.52543 -2.53449 3.1477 -1.685 0.8462 5.94492 -3.57871 -2.63716 0.805499 -1.585 0.7955 5.95087 -3.56894 -2.63442 -1.7069 20.075 5.0056 -10.8318 -0.150102 7.22846 -13.6458 -0.0470109 -4.849 57.038 10.3838 17.5057 -28.3255 -0.975882 2.28879 24.4825 46.552 33.4896 -22.1583 -0.53001 10.8316 -20.8056 -1.9772 16.0746 -0.785998 0.112005 2.5817 -1.08151 2.8542 -8.71951 -0.360103 -0.877994 4.23311 -0.628543 0.563048 -1.93427 -1.81269 -1.216 2.2227 -1.72738 1.64656 -5.45677 -0.9571 1.114 1.7695 3.18055e-015 0 -4.77083e-015 -4.12461 0.487008 4.1451 16.5411 6.67913 -7.48451 -3.40519 -1.45401 2.7682 12.2457 3.85053 -2.12872 -1.4531 -1.795 1.2713 13.7747 4.29284 -2.44898 -5.69541 0.209999 2.1184 12.2916 6.25509 -2.88182 -3.9766 -1.54 2.3863 14.8275 5.21142 -2.71002 -1.4042 -1.926 1.125 12.1 4.31645 -2.11536 -2.0956 0.66 -0.3894 3.18055e-015 0 -4.77083e-015 -5.03951 -0.0899872 2.4971 11.3858 4.2019 -2.32826 -3.7921 -1.55201 1.4806 14.4194 5.53332 -3.28616 -1.4655 -1.808 0.960902 11.7165 4.57376 -2.57141 -4.91411 -1.26899 0.3592 11.7088 4.20391 -1.44792 -3.1477 -1.68501 0.846197 12.8917 5.40282 -2.76061 -0.805497 -1.585 0.795503 11.7591 4.93235 -2.46109 8.36701 -8.2066 0.598197 -8.78789 -43.7451 -17.9999 2.1923 -43.463 -0.493207 -0.580483 16.061 -1.71492 0.733302 -45.8593 -2.6451 -6.63475 5.19648 -1.76481 -8.36701 -8.20662 0.598203 -3.68576 -50.4167 12.6479 -2.1923 -43.463 -0.493104 9.67451 37.2507 -6.30143 -0.733301 -45.8594 -2.6451 -2.70312 -6.9466 0.311003 
-31.7707 97.5116 15.9962 10.6152 19.6185 -3.32782 -3.64619e-007 -1.186 -1.5018 -1.34664 1.07508 -0.588674 -1.72452e-006 9.96399 0.2134 -2.68283 2.16368 -1.15222 1.58786e-006 13.134 -3.2573 -2.68283 2.16366 -1.15221 3.66185e-006 20.686 -1.69051 -13.9627 -17.8313 24.8926 -1.86928e-006 7.23802 -0.123703 12.4429 -15.8042 20.8194 1.7069 20.075 5.0056 0.303544 3.42966 -3.31702 13.6458 -0.0470152 -4.849 -32.6724 2.60834 -0.996324 28.3255 -0.975897 2.2888 -45.9898 51.1207 -47.9611 22.1583 -0.529994 10.8316 33.4983 6.27424 -36.3538 0.786004 0.111995 2.5817 -0.465392 -1.32322 -3.27999 0.360095 -0.877998 4.2331 -1.42066 -0.138139 -2.59964 1.8127 -1.21601 2.2227 -1.41717 -0.137627 -2.59345 0.9571 1.114 1.7695 1.27222e-014 -1.59028e-015 2.38542e-015 4.1246 0.486993 4.1451 6.19586 -3.04396 -2.50536 3.4052 -1.45401 2.7682 6.1719 -2.89451 -2.39446 1.4531 -1.79499 1.2713 6.20162 -2.90943 -2.40557 5.6954 0.209987 2.1184 6.05768 -3.53292 -2.35715 3.9766 -1.53999 2.3863 6.14672 -3.1928 -2.41358 1.4042 -1.926 1.125 6.17259 -3.20696 -2.42344 2.0956 0.66 -0.3894 1.27222e-014 -1.59028e-015 2.38542e-015 5.0395 -0.0900134 2.4971 6.06541 -3.38298 -2.68956 3.7921 -1.55199 1.4806 6.01397 -3.39281 -2.71859 1.4655 -1.808 0.9609 6.0435 -3.41022 -2.73119 4.9141 -1.269 0.3591 6.0595 -3.5643 -2.58346 3.1477 -1.685 0.846197 5.97763 -3.5994 -2.65084 0.805498 -1.58501 0.795498 5.97139 -3.59544 -2.64785 -1.7069 20.075 5.0056 -10.3762 -0.116353 5.00965 -13.6458 -0.0470105 -4.849 55.3545 8.79862 12.9074 -28.3255 -0.97589 2.2888 26.0758 46.5491 34.7543 -22.1583 -0.530011 10.8316 -18.3516 -3.57758 16.5412 -0.785998 0.112005 2.5817 -1.05011 2.25102 -7.02958 -0.360108 -0.877991 4.2331 -0.713955 0.642604 -2.20139 -1.8127 -1.216 2.2227 -1.4981 1.40936 -4.70544 -0.9571 1.114 1.7695 -3.18055e-015 3.18055e-015 3.18055e-015 -4.12461 0.487012 4.1451 14.0686 5.53092 -5.72587 -3.40519 -1.45401 2.7682 10.8107 3.42689 -1.83877 -1.4531 -1.795 1.2713 11.972 3.77029 -2.07284 -5.69541 0.210003 2.1184 10.8408 5.27188 -2.39312 -3.9766 -1.54 2.3863 12.7397 4.52934 -2.25121 -1.4042 -1.926 1.125 10.6983 3.84422 -1.82586 -2.0956 0.66 -0.3894 -3.18055e-015 3.18055e-015 3.18055e-015 -5.03951 -0.0899866 2.4971 10.1339 3.81256 -2.06646 -3.7921 -1.55201 1.4806 12.4042 4.82123 -2.7495 -1.4655 -1.80801 0.960901 10.3826 4.08571 -2.23467 -4.91411 -1.26899 0.359203 10.3565 3.86875 -1.39848 -3.14769 -1.68501 0.846197 11.2472 4.75768 -2.3452 -0.805498 -1.585 0.795502 10.3931 4.41732 -2.13657 8.36701 -8.2066 0.598198 -11.1906 -44.463 -20.1045 2.1923 -43.463 -0.4932 -0.577613 16.3455 -1.64163 0.733302 -45.8593 -2.6451 -6.76107 5.24388 -1.55543 -8.36701 -8.20661 0.598202 -7.07425 -52.0002 9.34944 -2.1923 -43.463 -0.493103 10.5838 38.8684 -6.93469 -0.7333 -45.8594 -2.6451 -2.83889 -7.62532 1.46262 
-31.7953 97.1293 15.8813 11.4461 19.9771 -2.50728 -4.59239e-007 -1.186 -1.5018 -1.42836 0.474051 -0.190863 1.05793e-007 9.96399 0.213401 -2.85528 0.952717 -0.369873 9.37697e-007 13.134 -3.2573 -2.85528 0.952716 -0.369873 3.50998e-007 20.686 -1.69049 -13.9035 -16.7833 23.8469 -9.39338e-007 7.238 -0.123703 13.6363 -16.333 21.5294 1.7069 20.075 5.0056 0.647607 3.135 -3.77836 13.6458 -0.0470157 -4.849 -27.8863 0.709538 -1.75051 28.3255 -0.975904 2.2888 -52.2869 51.1211 -50.7176 22.1583 -0.529995 10.8316 33.5264 9.25643 -42.1373 0.786003 0.111995 2.5817 -0.743486 -1.01545 -3.1565 0.360098 -0.878 4.2331 -1.44769 -0.14015 -2.64901 1.8127 -1.21601 2.2227 -1.44119 -0.139391 -2.63737 0.9571 1.114 1.7695 -3.18055e-015 5.1684e-015 -1.44119e-015 4.1246 0.486992 4.1451 6.34572 -3.07738 -2.51381 3.4052 -1.454 2.7682 6.34467 -2.97995 -2.45758 1.4531 -1.79499 1.2713 6.36297 -2.98923 -2.46449 5.6954 0.209985 2.1184 6.19577 -3.50783 -2.4096 3.9766 -1.53999 2.3863 6.2684 -3.2592 -2.45835 1.4042 -1.926 1.125 6.27747 -3.26421 -2.46201 2.0956 0.66 -0.3894 -3.18055e-015 5.1684e-015 -1.44119e-015 5.0395 -0.0900108 2.4971 6.13017 -3.43785 -2.73862 3.7921 -1.55199 1.4806 6.0988 -3.44328 -2.75484 1.4655 -1.808 0.960901 6.10786 -3.44854 -2.7587 4.9141 -1.269 0.359099 6.09404 -3.62303 -2.63887 3.1477 -1.685 0.846198 6.04819 -3.64403 -2.68026 0.805499 -1.58501 0.795498 6.04522 -3.6422 -2.67865 -1.7069 20.075 5.0056 -10.0084 -0.081187 2.81876 -13.6458 -0.0470055 -4.849 53.8256 7.37389 8.48558 -28.3255 -0.975887 2.2888 26.4951 46.1932 35.3629 -22.1583 -0.530023 10.8316 -15.6474 -7.24017 16.4527 -0.786 0.112006 2.5817 -1.007 1.68952 -5.40514 -0.360104 -0.877994 4.2331 -0.785994 0.71029 -2.42748 -1.8127 -1.216 2.2227 -1.26571 1.17514 -3.95326 -0.9571 1.114 1.7695 -3.18055e-015 9.54166e-015 -0 -4.12461 0.487012 4.1451 11.5334 4.37347 -4.02409 -3.4052 -1.45401 2.7682 9.30095 2.9726 -1.54482 -1.4531 -1.79499 1.2713 10.0948 3.21249 -1.6982 -5.69541 0.210002 2.1184 9.31214 4.26534 -1.90298 -3.9766 -1.54 2.3863 10.5831 3.80516 -1.80261 -1.4042 -1.926 1.125 9.21406 3.33548 -1.5315 -2.0956 0.66 -0.3894 -3.18055e-015 9.54166e-015 -0 -5.03951 -0.0899846 2.4971 8.79541 3.37628 -1.78429 -3.7921 -1.55201 1.4806 10.3206 4.06229 -2.21962 -1.4655 -1.808 0.9609 8.97535 3.56103 -1.89111 -4.91411 -1.26899 0.359201 8.91884 3.48299 -1.33071 -3.14769 -1.68501 0.846198 9.52699 4.06776 -1.92957 -0.805497 -1.585 0.795501 8.95533 3.82949 -1.79336 8.367 -8.20659 0.598197 -13.4281 -45.2411 -21.9714 2.1923 -43.4631 -0.4932 -0.565299 17.254 -1.62054 0.733304 -45.8593 -2.6451 -6.76316 4.84042 -1.72536 -8.36701 -8.2066 0.598198 -10.2201 -53.2146 5.95275 -2.19229 -43.463 -0.493083 11.297 40.5034 -7.53292 -0.733306 -45.8593 -2.6451 -2.98084 -8.32408 2.48652 
-31.7575 96.7711 15.8134 11.853 20.0627 -1.4139 -7.41105e-007 -1.186 -1.5018 -1.42071 -0.0987575 0.143818 -1.66644e-006 9.964 0.2134 -2.8412 -0.200982 0.28514 1.71788e-006 13.134 -3.2573 -2.84119 -0.200993 0.28514 -4.94663e-006 20.686 -1.69042 -13.7599 -15.2018 22.8825 3.99864e-006 7.238 -0.123703 14.8345 -16.8686 22.3399 1.7069 20.075 5.0056 1.19106 2.63677 -4.19833 13.6458 -0.0470108 -4.84901 -21.6855 -2.4202 -2.60416 28.3255 -0.97589 2.2888 -57.5648 51.0435 -54.5675 22.1583 -0.529992 10.8316 32.2889 10.3347 -48.5267 0.786002 0.111997 2.5817 -1.01756 -0.717409 -3.04078 0.3601 -0.877999 4.2331 -1.4747 -0.142129 -2.69838 1.8127 -1.21601 2.2227 -1.4741 -0.141812 -2.69748 0.9571 1.114 1.7695 3.18055e-015 -7.15625e-015 1.59028e-015 4.1246 0.486991 4.1451 6.51552 -3.12493 -2.5422 3.4052 -1.45401 2.7682 6.51737 -3.06556 -2.52045 1.4531 -1.79499 1.2713 6.52423 -3.0692 -2.52318 5.6954 0.209987 2.11841 6.36121 -3.50014 -2.47452 3.9766 -1.53999 2.3863 6.4147 -3.33921 -2.51203 1.4042 -1.926 1.125 6.42382 -3.35756 -2.52436 2.0956 0.66 -0.3894 3.18055e-015 -7.15625e-015 1.59028e-015 5.0395 -0.0900138 2.4971 6.23021 -3.51144 -2.79739 3.7921 -1.55199 1.4806 6.21634 -3.51331 -2.80499 1.4655 -1.808 0.960901 6.22038 -3.51558 -2.8067 4.9141 -1.269 0.359103 6.17304 -3.7006 -2.70496 3.1477 -1.685 0.846201 6.15221 -3.70996 -2.72358 0.805497 -1.58501 0.795499 6.16025 -3.71257 -2.72563 -1.7069 20.075 5.0056 -9.87752 -0.0487689 0.770547 -13.6458 -0.0470058 -4.849 52.5309 6.05567 5.01268 -28.3255 -0.97589 2.2888 25.4792 45.5036 35.238 -22.1583 -0.530008 10.8316 -12.9196 -10.9614 15.2813 -0.785999 0.112004 2.5817 -0.954251 1.23095 -4.04381 -0.360103 -0.877991 4.2331 -0.840782 0.762123 -2.59995 -1.8127 -1.216 2.2227 -1.07254 0.985051 -3.33468 -0.9571 1.114 1.7695 -5.29669e-031 6.36111e-015 4.77083e-015 -4.1246 0.487015 4.1451 9.13053 3.30032 -2.55293 -3.4052 -1.45401 2.7682 7.82571 2.52054 -1.26888 -1.4531 -1.795 1.2713 8.28568 2.66223 -1.35394 -5.69541 0.210002 2.1184 7.81844 3.32479 -1.45511 -3.9766 -1.54 2.3863 8.52741 3.09728 -1.3997 -1.4042 -1.926 1.125 7.75732 2.82776 -1.25506 -2.0956 0.66 -0.3894 -5.29669e-031 6.36111e-015 4.77083e-015 -5.03951 -0.0899875 2.4971 7.47295 2.92683 -1.50626 -3.7921 -1.552 1.4806 8.33355 3.31799 -1.73883 -1.4655 -1.808 0.9609 7.57207 3.02811 -1.56073 -4.91411 -1.26899 0.359203 7.51121 3.06992 -1.23974 -3.14769 -1.68501 0.8462 7.8646 3.38701 -1.54671 -0.805497 -1.585 0.7955 7.52204 3.23326 -1.46524 8.367 -8.2066 0.598201 -15.3908 -45.8142 -23.557 2.1923 -43.4631 -0.493206 -0.554465 18.4086 -1.65472 0.733297 -45.8594 -2.64511 -6.69841 4.64006 -2.18213 -8.367 -8.2066 0.598201 -12.9223 -53.8581 2.96073 -2.1923 -43.463 -0.493099 11.9699 41.9921 -8.11676 -0.7333 -45.8593 -2.6451 -3.1228 -9.07519 3.02947 
